<svg width="30" height="30" viewBox="0 0 30 30" fill="none" xmlns="http://www.w3.org/2000/svg">
<path d="M18.45 13.9875C18.2759 13.9868 18.1037 14.0224 17.9442 14.0922C17.7847 14.1619 17.6415 14.2642 17.5238 14.3924C17.4062 14.5207 17.3166 14.6721 17.2608 14.837C17.2051 15.0019 17.1843 15.1766 17.2 15.35H19.775C19.7916 15.1701 19.7691 14.9888 19.7089 14.8185C19.6487 14.6482 19.5524 14.4929 19.4265 14.3634C19.3005 14.234 19.148 14.1333 18.9795 14.0684C18.8109 14.0035 18.6303 13.9759 18.45 13.9875ZM11.8625 15.375H10.325V17.8H11.575C12.825 17.8 13.375 17.3875 13.375 16.55C13.375 15.7125 12.8 15.375 11.8625 15.375ZM12.95 13.15C12.95 12.4875 12.5125 12.0875 11.7625 12.0875H10.325V14.2625H11.3875C12.5 14.2625 12.95 13.8625 12.95 13.15Z" fill="black"/>
<path d="M15 2.5C12.5277 2.5 10.111 3.23311 8.05538 4.60663C5.99976 5.98015 4.39761 7.93238 3.45151 10.2165C2.50542 12.5005 2.25787 15.0139 2.74019 17.4386C3.2225 19.8634 4.41301 22.0907 6.16117 23.8388C7.90933 25.587 10.1366 26.7775 12.5614 27.2598C14.9861 27.7421 17.4995 27.4946 19.7835 26.5485C22.0676 25.6024 24.0199 24.0002 25.3934 21.9446C26.7669 19.889 27.5 17.4723 27.5 15C27.5 13.3585 27.1767 11.733 26.5485 10.2165C25.9203 8.69989 24.9996 7.3219 23.8388 6.16117C22.6781 5.00043 21.3001 4.07969 19.7835 3.45151C18.267 2.82332 16.6415 2.5 15 2.5ZM12.125 19H8.75001V10.875H12.125C13.5875 10.875 14.55 11.6375 14.55 12.875C14.5673 13.2907 14.4358 13.699 14.1792 14.0266C13.9227 14.3542 13.5578 14.5796 13.15 14.6625C13.4084 14.6685 13.6629 14.7271 13.8979 14.8349C14.1328 14.9426 14.3433 15.0972 14.5165 15.2891C14.6897 15.481 14.8219 15.7062 14.905 15.9509C14.9882 16.1957 15.0205 16.4548 15 16.7125C15 18.1625 13.75 19 12.125 19ZM16.5625 11.5H20.3125V12.125H16.5625V11.5ZM21.25 16.3125H17.125V16.4875C17.1035 16.6774 17.123 16.8698 17.1821 17.0516C17.2412 17.2334 17.3386 17.4004 17.4677 17.5413C17.5968 17.6823 17.7547 17.7939 17.9306 17.8687C18.1065 17.9436 18.2964 17.9798 18.4875 17.975C18.7558 18.0167 19.0301 17.9599 19.2599 17.8152C19.4896 17.6705 19.6593 17.4475 19.7375 17.1875H21.25C21.1153 17.7875 20.7642 18.3169 20.2638 18.6743C19.7634 19.0317 19.1488 19.1922 18.5375 19.125C18.1468 19.1645 17.7522 19.1178 17.3815 18.9884C17.0108 18.8589 16.673 18.6498 16.3917 18.3758C16.1105 18.1017 15.8928 17.7693 15.7538 17.4021C15.6149 17.0348 15.5581 16.6416 15.5875 16.25V15.7C15.561 15.3206 15.6168 14.9399 15.7512 14.5841C15.8855 14.2283 16.0953 13.9057 16.366 13.6386C16.6367 13.3714 16.962 13.166 17.3195 13.0364C17.6771 12.9067 18.0585 12.8559 18.4375 12.8875C18.8153 12.8633 19.1939 12.9203 19.5478 13.0547C19.9017 13.189 20.2227 13.3977 20.4891 13.6665C20.7556 13.9354 20.9614 14.2582 21.0927 14.6133C21.2239 14.9684 21.2776 15.3475 21.25 15.725V16.3125Z" fill="black"/>
</svg>
