<svg width="20" height="20" viewBox="0 0 20 20" fill="none" xmlns="http://www.w3.org/2000/svg">
<path d="M12.3 9.32499C12.184 9.32451 12.0691 9.34828 11.9628 9.39477C11.8565 9.44126 11.761 9.50944 11.6826 9.59495C11.6041 9.68046 11.5444 9.78141 11.5072 9.89134C11.4701 10.0013 11.4563 10.1177 11.4667 10.2333H13.1834C13.1944 10.1134 13.1794 9.99253 13.1393 9.87899C13.0992 9.76545 13.0349 9.66195 12.951 9.57562C12.867 9.48929 12.7654 9.42218 12.653 9.37892C12.5406 9.33565 12.4202 9.31725 12.3 9.32499ZM7.90836 10.25H6.88336V11.8667H7.7167C8.55003 11.8667 8.91669 11.5917 8.91669 11.0333C8.91669 10.475 8.53336 10.25 7.90836 10.25ZM8.63336 8.76665C8.63336 8.32499 8.34169 8.05832 7.84169 8.05832H6.88336V9.50832H7.59169C8.33336 9.50832 8.63336 9.24165 8.63336 8.76665Z" fill="black"/>
<path d="M10 1.66666C8.35185 1.66666 6.74068 2.1554 5.37027 3.07108C3.99986 3.98675 2.93176 5.28824 2.30103 6.81096C1.6703 8.33368 1.50527 10.0092 1.82681 11.6257C2.14836 13.2423 2.94203 14.7271 4.10747 15.8925C5.27291 17.058 6.75776 17.8517 8.37427 18.1732C9.99078 18.4947 11.6663 18.3297 13.1891 17.699C14.7118 17.0683 16.0133 16.0002 16.9289 14.6297C17.8446 13.2593 18.3334 11.6482 18.3334 9.99999C18.3334 8.90564 18.1178 7.82201 17.699 6.81096C17.2802 5.79991 16.6664 4.88125 15.8926 4.10743C15.1188 3.33361 14.2001 2.71978 13.1891 2.30099C12.178 1.8822 11.0944 1.66666 10 1.66666ZM8.08336 12.6667H5.83336V7.24999H8.08336C9.05836 7.24999 9.70002 7.75832 9.70002 8.58332C9.71152 8.86048 9.62389 9.13267 9.45285 9.35106C9.2818 9.56945 9.03853 9.71975 8.76669 9.77499C8.93897 9.77898 9.10862 9.81809 9.26526 9.88991C9.42191 9.96173 9.56225 10.0648 9.6777 10.1927C9.79315 10.3206 9.88129 10.4708 9.93671 10.6339C9.99213 10.7971 10.0137 10.9699 10 11.1417C10 12.1083 9.16669 12.6667 8.08336 12.6667ZM11.0417 7.66666H13.5417V8.08332H11.0417V7.66666ZM14.1667 10.875H11.4167V10.9917C11.4024 11.1183 11.4153 11.2465 11.4548 11.3677C11.4942 11.4889 11.5591 11.6002 11.6452 11.6942C11.7313 11.7882 11.8365 11.8626 11.9537 11.9125C12.071 11.9624 12.1976 11.9865 12.325 11.9833C12.5039 12.0111 12.6868 11.9733 12.8399 11.8768C12.9931 11.7803 13.1062 11.6317 13.1584 11.4583H14.1667C14.0769 11.8583 13.8428 12.2112 13.5092 12.4495C13.1756 12.6878 12.7659 12.7948 12.3584 12.75C12.0979 12.7763 11.8348 12.7452 11.5877 12.6589C11.3406 12.5726 11.1153 12.4332 10.9279 12.2505C10.7404 12.0678 10.5952 11.8462 10.5026 11.6014C10.41 11.3565 10.3721 11.0944 10.3917 10.8333V10.4667C10.374 10.2137 10.4112 9.95994 10.5008 9.72273C10.5904 9.48552 10.7302 9.27049 10.9107 9.09239C11.0911 8.91428 11.308 8.77732 11.5464 8.69089C11.7848 8.60446 12.039 8.57061 12.2917 8.59166C12.5435 8.57551 12.7959 8.61351 13.0319 8.7031C13.2678 8.79269 13.4818 8.93178 13.6594 9.11102C13.8371 9.29026 13.9743 9.50548 14.0618 9.7422C14.1493 9.97891 14.1851 10.2316 14.1667 10.4833V10.875Z" fill="black"/>
</svg>
